<?xml version="1.0" encoding="UTF-8" standalone="no"?>
<!-- Created with Inkscape (http://www.inkscape.org/) -->

<svg
   xmlns:dc="http://purl.org/dc/elements/1.1/"
   xmlns:cc="http://creativecommons.org/ns#"
   xmlns:rdf="http://www.w3.org/1999/02/22-rdf-syntax-ns#"
   xmlns:svg="http://www.w3.org/2000/svg"
   xmlns="http://www.w3.org/2000/svg"
   xmlns:xlink="http://www.w3.org/1999/xlink"
   xmlns:sodipodi="http://sodipodi.sourceforge.net/DTD/sodipodi-0.dtd"
   xmlns:inkscape="http://www.inkscape.org/namespaces/inkscape"
   version="1.1"
   width="100%"
   height="100%"
   id="ALT"
   inkscape:version="0.48.2 r9819"
   sodipodi:docname="ALT.svg"
   viewBox="0 0 512 512"
   preserveAspectRatio="xMinYMin meet">
  <title
     id="title3023">Altimeter</title>
  <defs
     id="defs3747">
    <radialGradient
       inkscape:collect="always"
       xlink:href="#linearGradient12865"
       id="radialGradient12871-0"
       cx="23.26037"
       cy="-208.44028"
       fx="23.26037"
       fy="-208.44028"
       r="255.99997"
       gradientTransform="translate(252.73963,477.61325)"
       gradientUnits="userSpaceOnUse" />
    <linearGradient
       inkscape:collect="always"
       id="linearGradient12865">
      <stop
         style="stop-color:#151515;stop-opacity:1"
         offset="0"
         id="stop12867" />
      <stop
         id="stop12873"
         offset="0.87221068"
         style="stop-color:#0e0e0e;stop-opacity:1" />
      <stop
         style="stop-color:#080808;stop-opacity:1"
         offset="0.95222574"
         id="stop12877" />
      <stop
         style="stop-color:#000000;stop-opacity:1"
         offset="1"
         id="stop12869" />
    </linearGradient>
  </defs>
  <sodipodi:namedview
     id="base"
     bordercolor="#666666"
     borderopacity="1.0"
     inkscape:pageshadow="2"
     inkscape:zoom="1.1015625"
     inkscape:cx="-61.803156"
     inkscape:cy="313.16185"
     inkscape:document-units="px"
     inkscape:current-layer="10000"
     showgrid="false"
     borderlayer="true"
     inkscape:window-width="1842"
     inkscape:window-height="1057"
     inkscape:window-x="-8"
     inkscape:window-y="-8"
     inkscape:window-maximized="1"
     showguides="true"
     inkscape:guide-bbox="true"
     inkscape:snap-page="true"
     inkscape:snap-bbox="true"
     inkscape:bbox-nodes="true"
     inkscape:bbox-paths="true"
     inkscape:snap-bbox-edge-midpoints="true"
     inkscape:snap-bbox-midpoints="true" />
  <metadata
     id="metadata3750">
    <rdf:RDF>
      <cc:Work
         rdf:about="">
        <dc:format>image/svg+xml</dc:format>
        <dc:type
           rdf:resource="http://purl.org/dc/dcmitype/StillImage" />
        <dc:title>Altimeter</dc:title>
        <dc:creator>
          <cc:Agent>
            <dc:title>Torsten Dreyer</dc:title>
          </cc:Agent>
        </dc:creator>
        <dc:rights>
          <cc:Agent>
            <dc:title>Torsten Dreyer</dc:title>
          </cc:Agent>
        </dc:rights>
        <dc:publisher>
          <cc:Agent>
            <dc:title>flightgear.org</dc:title>
          </cc:Agent>
        </dc:publisher>
        <cc:license
           rdf:resource="http://www.gnu.org/licenses/gpl-2.0.html" />
        <dc:date>2014-08-01</dc:date>
      </cc:Work>
    </rdf:RDF>
  </metadata>
  <g
     inkscape:groupmode="layer"
     id="Face"
     inkscape:label="Face"
     style="display:inline">
    <path
       style="color:#000000;fill:url(#radialGradient12871-0);fill-opacity:1;fill-rule:nonzero;stroke:none;visibility:visible;display:inline;overflow:visible;enable-background:accumulate"
       d="M 256,0 C 114.61511,0 0,114.6151 0,256 0,397.3849 114.61511,512 256,512 397.38491,512 512,397.3849 512,256 512,114.6151 397.38491,0 256,0 z m 199.03125,213.90625 c 5.85737,40.33674 6.00837,40.38005 0,84.1875 C 396.7407,286.64967 386.46875,284 386.46875,284 c 2.01171,-28.13935 1.74613,-27.68109 0,-56 0,0 13.72164,-3.00359 68.5625,-14.09375 z"
       id="path3884"
       inkscape:connector-curvature="0"
       sodipodi:nodetypes="sssssccccc" />
    <path
       inkscape:connector-curvature="0"
       id="path4091"
       style="fill:#f0f0f0"
       d="m 194.56222,234.53866 0,-52.56872 6.9143,0 0,52.56872 -6.9143,0" />
    <path
       inkscape:connector-curvature="0"
       id="path4094"
       style="fill:#f0f0f0"
       d="m 254.85411,194.91486 0,9.3591 -34.98807,0 c 0.37888,-3.53806 1.51555,-6.88485 3.41001,-10.04042 1.89443,-3.17945 5.63597,-7.38686 11.22459,-12.62223 4.49929,-4.23129 7.25808,-7.09997 8.27637,-8.60607 1.37345,-2.07977 2.06019,-4.13565 2.06021,-6.16768 -2e-5,-2.2471 -0.60388,-3.96831 -1.81156,-5.16364 -1.18405,-1.21916 -2.82986,-1.82874 -4.9374,-1.82879 -2.08392,5e-5 -3.74156,0.63355 -4.97293,1.90051 -1.23141,1.26704 -1.94182,3.37075 -2.13125,6.31111 l -9.94585,-1.00404 c 0.59201,-5.54609 2.45094,-9.52639 5.57678,-11.94092 3.12583,-2.41442 7.03312,-3.62166 11.72189,-3.62172 5.13866,6e-5 9.1762,1.39854 12.11262,4.19546 2.93636,2.79702 4.40455,6.2753 4.40459,10.43486 -4e-5,2.3667 -0.42629,4.62579 -1.27875,6.77728 -0.82885,2.12763 -2.15497,4.36282 -3.97835,6.70555 -1.20773,1.55391 -3.38634,3.78909 -6.53584,6.70556 -3.14953,2.91652 -5.15054,4.85288 -6.00303,5.8091 -0.82884,0.95624 -1.50373,1.88857 -2.02468,2.79698 l 19.82065,0" />
    <path
       id="rect4712"
       style="fill:#f0f0f0;fill-opacity:1;stroke:none"
       d="m 459.38588,254.5 5.28424,0 4.33163,-3.5 25.81439,0 0,10 -25.81439,0 -4.33163,-3.5 -5.28424,0 z M 330.08126,84.984957 l 3.85111,-11.852525 -2.75749,-0.895966 0.78413,-2.413323 7.38504,2.399545 -0.78414,2.413323 -2.75116,-0.893909 -3.85112,11.852525 -1.87637,-0.60967 m -10.76378,-3.497363 4.63525,-14.265848 6.8906,2.23889 -0.78414,2.413322 -5.01422,-1.629219 -1.0276,3.16262 4.66557,1.515934 -0.78097,2.403591 -4.66557,-1.515934 -1.26157,3.882724 5.19171,1.68689 -0.78097,2.403591 -7.06809,-2.296561 m -8.67188,-2.817663 4.63526,-14.265848 6.89059,2.23889 -0.78413,2.413322 -5.01423,-1.629219 -1.02759,3.16262 4.66556,1.515934 -0.78097,2.403591 -4.66557,-1.515935 -1.26157,3.882724 5.19171,1.686891 -0.78097,2.40359 -7.06809,-2.29656 m -7.92386,-2.574621 4.63525,-14.265848 6.37079,2.069994 -0.78414,2.413323 -4.49441,-1.460323 -1.09716,3.376704 3.87952,1.260534 -0.78413,2.413321 -3.87953,-1.260533 -1.96982,6.062499 -1.87637,-0.609671 M 204.02365,63.520974 c 0.88152,-0.286406 1.72747,-0.02746 2.53786,0.776832 0.96338,0.951276 1.87545,2.751522 2.73625,5.400747 0.85872,2.64289 1.17795,4.639269 0.95769,5.989161 -0.18285,1.112986 -0.71503,1.812684 -1.59654,2.099104 -0.88565,0.287764 -1.76881,-0.0012 -2.6495,-0.86698 -0.88275,-0.872093 -1.75968,-2.64865 -2.63079,-5.329658 -0.85459,-2.630162 -1.17176,-4.620201 -0.9515,-5.970107 0.18285,-1.112961 0.71503,-1.812665 1.59653,-2.099099 m 0.72146,2.220399 c -0.21107,0.06859 -0.3653,0.234637 -0.46274,0.498029 -0.0995,0.257101 -0.10805,0.667269 -0.0257,1.230492 0.10499,0.7315 0.42377,1.916789 0.95634,3.555875 0.53257,1.639098 0.95278,2.749284 1.26061,3.330566 0.30577,0.574941 0.57238,0.937829 0.79984,1.088686 0.2316,0.149513 0.45293,0.189975 0.664,0.121395 0.21106,-0.06858 0.36632,-0.231455 0.46582,-0.488496 0.0974,-0.26344 0.10497,-0.676779 0.0226,-1.240024 -0.10292,-0.725126 -0.42066,-1.907233 -0.95324,-3.546331 -0.53257,-1.639086 -0.95175,-2.746103 -1.25751,-3.321048 -0.30784,-0.581277 -0.57755,-0.946674 -0.80915,-1.096201 -0.22952,-0.157195 -0.44981,-0.201511 -0.66088,-0.132943 m -7.79836,0.07903 c 0.88151,-0.286406 1.72746,-0.02746 2.53786,0.776832 0.96337,0.951276 1.87545,2.751522 2.73624,5.400747 0.85872,2.64289 1.17795,4.639269 0.9577,5.98916 -0.18285,1.112987 -0.71504,1.812685 -1.59655,2.099105 -0.88564,0.287764 -1.76881,-0.0012 -2.6495,-0.86698 -0.88274,-0.872093 -1.75967,-2.648651 -2.63079,-5.329658 -0.85459,-2.630162 -1.17176,-4.620201 -0.9515,-5.970104 0.18285,-1.112964 0.71503,-1.812668 1.59654,-2.099102 m 0.72145,2.220399 c -0.21106,0.06859 -0.36529,0.234637 -0.46273,0.498029 -0.0995,0.257101 -0.10805,0.667269 -0.0257,1.230492 0.105,0.7315 0.42377,1.916788 0.95634,3.555875 0.53258,1.639097 0.95279,2.749284 1.26061,3.330566 0.30578,0.574941 0.57239,0.937829 0.79985,1.088686 0.23159,0.149513 0.45292,0.189975 0.66399,0.121395 0.21106,-0.06858 0.36633,-0.231455 0.46583,-0.488496 0.0974,-0.26344 0.10495,-0.676776 0.0226,-1.240025 -0.10292,-0.725125 -0.42067,-1.907232 -0.95324,-3.54633 -0.53257,-1.639086 -0.95175,-2.746103 -1.25752,-3.321045 -0.30783,-0.58128 -0.57755,-0.946677 -0.80914,-1.096204 -0.22953,-0.157195 -0.44982,-0.201509 -0.66089,-0.132943 m -2.30935,13.804078 -4.53926,-13.970427 1.83751,-0.597045 4.53927,13.970426 -1.83752,0.597046 m -48.07933,49.399 10.37582,-1.07576 c 0.25429,1.98419 0.91549,3.45439 1.98361,4.41061 1.06808,0.95624 2.4795,1.43435 4.23425,1.43434 2.21246,1e-5 4.09436,-0.95622 5.64566,-2.86868 1.55126,-1.91245 2.54306,-5.8808 2.97542,-11.90506 -2.69571,2.94043 -6.06529,4.41062 -10.10879,4.4106 -4.39957,2e-5 -8.20149,-1.58971 -11.40577,-4.76919 -3.17887,-3.20335 -4.76829,-7.36294 -4.76829,-12.4788 0,-5.33094 1.67843,-9.622012 5.03531,-12.873241 3.3823,-3.275035 7.68012,-4.912577 12.89348,-4.91263 5.67107,5.3e-5 10.32493,2.067898 13.96158,6.203541 3.63658,4.11183 5.45489,10.88911 5.45493,20.33183 -4e-5,9.61013 -1.89464,16.54279 -5.68381,20.798 -3.78924,4.25523 -8.72284,6.38283 -14.8008,6.38283 -4.37414,0 -7.90902,-1.0877 -10.60469,-3.26313 -2.69568,-2.19932 -4.42499,-5.47441 -5.18791,-9.82526 m 24.2611,-22.01719 c -2e-5,-3.25114 -0.8011,-5.77319 -2.40322,-7.56617 -1.57674,-1.792883 -3.40777,-2.689348 -5.49308,-2.689396 -1.98363,4.8e-5 -3.63663,0.741123 -4.95903,2.223236 -1.297,1.45829 -1.94548,3.86081 -1.94546,7.20758 -2e-5,3.39465 0.71205,5.8928 2.1362,7.49445 1.42411,1.57781 3.20427,2.3667 5.34049,2.36667 2.05988,3e-5 3.78918,-0.76496 5.1879,-2.29495 1.4241,-1.52993 2.13618,-3.77708 2.1362,-6.74142 m -85.97163,87.14344 c -2.422552,-1.09963 -4.189452,-2.60569 -5.300703,-4.51818 -1.089038,-1.93633 -1.633555,-4.05199 -1.633551,-6.34698 -4e-6,-3.9205 1.26683,-7.15972 3.800505,-9.71768 2.555884,-2.55787 6.178584,-3.83682 10.86811,-3.83688 4.645034,6e-5 8.245509,1.27901 10.801439,3.83688 2.57808,2.55796 3.86714,5.79718 3.86717,9.71768 -3e-5,2.43842 -0.589,4.61384 -1.76689,6.52626 -1.17797,1.88859 -2.83375,3.33489 -4.96733,4.3389 2.71144,1.17141 4.76726,2.88067 6.16748,5.12778 1.42238,2.24717 2.13358,4.84093 2.13362,7.78132 -4e-5,4.85287 -1.44467,8.79732 -4.33391,11.83335 -2.86708,3.03603 -6.689802,4.55404 -11.468188,4.55404 -4.44505,0 -8.145538,-1.25505 -11.101475,-3.76516 -3.489356,-2.9643 -5.234031,-7.02827 -5.234028,-12.19192 -3e-6,-2.84477 0.655639,-5.4505 1.966928,-7.81718 1.311279,-2.39055 3.378218,-4.23129 6.200823,-5.52223 m 1.93359,-10.14798 c -1.3e-5,2.00811 0.522278,3.57394 1.566875,4.69747 1.066793,1.1236 2.47809,1.68539 4.233896,1.68536 1.777992,3e-5 3.200407,-0.56176 4.267228,-1.68536 1.066792,-1.14744 1.600192,-2.72522 1.600221,-4.73334 -2.9e-5,-1.88851 -0.533429,-3.39457 -1.600221,-4.51819 -1.044596,-1.14742 -2.433672,-1.72116 -4.167216,-1.72121 -1.800255,5e-5 -3.233778,0.57379 -4.30057,1.72121 -1.066822,1.14752 -1.600226,2.66553 -1.600213,4.55406 m -0.866781,22.51921 c -1.3e-5,2.77308 0.655629,4.93654 1.966928,6.4904 1.333495,1.55388 2.989268,2.33082 4.967325,2.33081 1.93357,1e-5 3.533782,-0.74107 4.800638,-2.22323 1.266807,-1.50605 1.90023,-3.66952 1.90025,-6.49041 -2e-5,-2.46228 -0.644551,-4.4345 -1.933593,-5.91667 -1.289081,-1.50605 -2.922626,-2.25908 -4.900645,-2.2591 -2.28921,2e-5 -4.000546,0.84868 -5.134015,2.54596 -1.111272,1.69733 -1.666901,3.53807 -1.666888,5.52224 m -8.85464,89.69905 0,-9.3591 29.802961,0 0,7.31516 c -2.46035,2.79702 -4.96202,6.81318 -7.50501,12.04849 -2.543042,5.23539 -4.486485,10.80542 -5.830346,16.71012 -1.323212,5.88082 -1.974472,11.14008 -1.95378,15.77779 l -8.404373,0 c 0.144716,-7.26734 1.436899,-14.67811 3.876556,-22.23234 2.460306,-7.55418 5.737283,-14.30755 9.830949,-20.26012 l -19.816957,0 m 98.390931,71.80781 -9.8707,1.07576 c -0.24196,-2.00805 -0.87098,-3.4902 -1.88704,-4.44647 -1.01613,-0.95618 -2.33464,-1.4343 -3.95555,-1.43435 -2.15318,5e-5 -3.97975,0.95628 -5.47968,2.86869 -1.47579,1.9125 -2.40721,5.89281 -2.79429,11.94092 2.54024,-2.96428 5.69742,-4.44643 9.47152,-4.44646 4.25792,3e-5 7.89895,1.60171 10.9231,4.80505 3.04826,3.2034 4.57241,7.33908 4.57245,12.40707 -4e-5,5.37882 -1.59677,9.6938 -4.79019,12.94497 -3.1935,3.25118 -7.29419,4.87677 -12.30208,4.87677 -5.37084,0 -9.78604,-2.05589 -13.24562,-6.16768 -3.45958,-4.13568 -5.18937,-10.901 -5.18937,-20.29598 0,-9.63397 1.80236,-16.57859 5.40711,-20.83385 3.60473,-4.25517 8.28605,-6.38278 14.04397,-6.38284 4.04019,6e-5 7.3788,1.12362 10.01586,3.37072 2.66118,2.22328 4.35468,5.4625 5.08051,9.71768 m -23.11631,21.98133 c -1e-5,3.2751 0.76206,5.8091 2.28623,7.60203 1.52414,1.76903 3.26602,2.65354 5.22566,2.65353 1.88702,10e-6 3.45956,-0.72912 4.71762,-2.18737 1.258,-1.45824 1.88701,-3.84882 1.88704,-7.17173 -3e-5,-3.4185 -0.67743,-5.91664 -2.0322,-7.49444 -1.35483,-1.60166 -3.04833,-2.40251 -5.0805,-2.40253 -1.95965,2e-5 -3.61686,0.76501 -4.97165,2.29495 -1.35481,1.50608 -2.03221,3.74127 -2.0322,6.70556 m 86.33107,37.84013 9.43547,-1.0399 c 0.26957,2.27106 1.06709,4.07594 2.39256,5.41466 1.32545,1.31481 2.85309,1.97222 4.58295,1.97221 1.97693,10e-6 3.6506,-0.84864 5.02101,-2.54596 1.37036,-1.72119 2.05556,-4.30301 2.05559,-7.74546 -3e-5,-3.22725 -0.68523,-5.64173 -2.05559,-7.24344 -1.34794,-1.62556 -3.11148,-2.43836 -5.2906,-2.43838 -2.71833,2e-5 -5.15582,1.27898 -7.31248,3.83687 l -7.68317,-1.18334 4.85252,-27.36011 25.03769,0 0,9.43081 -17.85999,0 -1.48272,8.9288 c 2.11173,-1.12354 4.26841,-1.68532 6.47004,-1.68536 4.201,4e-5 7.76176,1.62563 10.68229,4.87677 2.92047,3.25121 4.38071,7.47057 4.38075,12.65809 -4e-5,4.32695 -1.17947,8.18773 -3.53829,11.58233 -3.21259,4.63771 -7.67196,6.95657 -13.37815,6.95658 -4.56049,-10e-6 -8.27851,-1.30287 -11.15407,-3.9086 -2.87557,-2.60572 -4.59417,-6.1079 -5.15581,-10.50657 m 113.611,-19.67776 0,-10.57828 -22.96588,0 0,-8.82123 24.34384,-33.38436 9.03324,0 0,33.34851 6.96631,0 0,8.85708 -6.96631,0 0,10.57828 -10.4112,0 m 0,-19.43536 0,-17.96517 -12.89916,17.96517 12.89916,0 m 44.95394,-60.46278 10.12797,-1.18333 c 0.3227,2.48621 1.19151,4.38672 2.60646,5.70152 1.41492,1.31483 3.12774,1.97223 5.13846,1.97223 2.15962,0 3.97173,-0.78888 5.43634,-2.36667 1.48938,-1.57778 2.23408,-3.70538 2.23411,-6.38284 -3e-5,-2.53399 -0.7075,-4.54207 -2.12241,-6.02425 -1.41496,-1.48213 -3.14018,-2.22321 -5.17568,-2.22323 -1.34049,2e-5 -2.94161,0.25104 -4.80335,0.75303 l 1.15429,-8.21162 c 2.82986,0.0717 4.9895,-0.51394 6.47893,-1.75708 1.48938,-1.26697 2.23409,-2.94036 2.23411,-5.0202 -2e-5,-1.76898 -0.54614,-3.17942 -1.63835,-4.23131 -1.09225,-1.05181 -2.54443,-1.57774 -4.35651,-1.57778 -1.78731,4e-5 -3.31395,0.59768 -4.57994,1.79293 -1.266,1.19532 -2.03553,2.94044 -2.30857,5.23535 l -9.64392,-1.57778 c 0.67023,-3.17941 1.67558,-5.71342 3.01605,-7.60202 1.36528,-1.91241 3.25187,-3.40652 5.65975,-4.48233 2.43269,-1.09961 5.15085,-1.64944 8.15451,-1.6495 5.13842,6e-5 9.25911,1.57783 12.36208,4.73335 2.55678,2.58186 3.83518,5.49835 3.83522,8.7495 -4e-5,4.61384 -2.61891,8.29531 -7.85662,11.04445 3.12771,0.64548 5.62247,2.09178 7.48426,4.33889 1.88655,2.24716 2.82984,4.96046 2.82989,8.1399 -5e-5,4.61382 -1.7501,8.54632 -5.25017,11.79749 -3.50014,3.25118 -7.85665,4.87677 -13.06955,4.87677 -4.93988,0 -9.03575,-1.36262 -12.2876,-4.08788 -3.25189,-2.74916 -5.13847,-6.33502 -5.65976,-10.75759 m 36.64701,-123.77751 0,9.35909 -34.98807,0 c 0.37888,-3.53805 1.51555,-6.88485 3.41,-10.04041 1.89444,-3.17945 5.63597,-7.38686 11.2246,-12.62223 4.49929,-4.23129 7.25808,-7.09998 8.27637,-8.60606 1.37344,-2.07977 2.06018,-4.13567 2.06021,-6.16769 -3e-5,-2.2471 -0.60388,-3.96831 -1.81157,-5.16364 -1.18405,-1.21915 -2.82985,-1.82874 -4.9374,-1.82878 -2.08391,4e-5 -3.74155,0.63354 -4.97292,1.9005 -1.23141,1.26705 -1.94183,3.37075 -2.13126,6.31112 l -9.94584,-1.00405 c 0.59201,-5.54609 2.45093,-9.52639 5.57677,-11.94092 3.12583,-2.41442 7.03312,-3.62166 11.7219,-3.62171 5.13865,5e-5 9.1762,1.39853 12.11262,4.19545 2.93635,2.79702 4.40455,6.2753 4.40459,10.43486 -4e-5,2.3667 -0.42629,4.62579 -1.27876,6.77728 -0.82885,2.12764 -2.15497,4.36282 -3.97834,6.70556 -1.20773,1.55389 -3.38635,3.78908 -6.53584,6.70556 -3.14953,2.91651 -5.15054,4.85288 -6.00303,5.80909 -0.82884,0.95625 -1.50373,1.88857 -2.02469,2.79698 l 19.82066,0 m -75.72452,-62.95775 0,-52.568718 6.91431,0 0,52.568718 -6.91431,0 M 239.39166,94.44942 c 0,-5.354856 0.52168,-9.84913 1.56506,-13.48284 0.77863,-2.677401 1.83757,-5.079925 3.17684,-7.20758 1.35482,-2.127563 2.83423,-3.70534 4.43824,-4.733338 2.13345,-1.386479 4.59395,-2.079745 7.38149,-2.079799 5.04554,5.4e-5 9.07889,2.402579 12.10003,7.207581 3.03666,4.805096 4.555,11.486744 4.55503,20.044965 -3e-5,8.486561 -1.5028,15.132341 -4.50831,19.937391 -3.00558,4.78115 -7.02334,7.17172 -12.05331,7.17172 -5.09232,0 -9.14123,-2.37862 -12.14676,-7.13586 -3.00554,-4.78114 -4.50831,-11.35521 -4.50831,-19.72224 m 7.12453,-0.358587 c -1e-5,5.952547 0.89542,10.470727 2.68631,13.554557 1.79085,3.05994 4.06446,4.58991 6.82086,4.5899 2.75636,10e-6 5.01441,-1.518 6.77415,-4.55404 1.77527,-3.05992 2.66292,-7.63787 2.66294,-13.733851 -2e-5,-6.024215 -0.86431,-10.51849 -2.59286,-13.482839 -1.71302,-2.964269 -3.99444,-4.446424 -6.84423,-4.446468 -2.84983,4.4e-5 -5.14681,1.506105 -6.89094,4.518185 -1.74416,2.988255 -2.61624,7.506435 -2.61623,13.554556 m -12.21026,392.330437 -3.96846,-0.50132 3.38397,-26.78711 3.96844,0.50133 z m 54.77061,-433.554121 -3.96845,-0.501336 3.38397,-26.787095 3.96846,0.501322 z m -83.43642,428.341521 -3.87433,-0.99475 6.7146,-26.15176 3.87431,0.99475 z m 108.67747,-423.270842 -3.87432,-0.994761 6.7146,-26.151747 3.87433,0.994749 z m -136.46393,414.506562 -3.7191,-1.47249 9.93934,-25.10398 3.71908,1.47249 z m 160.87042,-406.312324 -3.71909,-1.472498 9.93934,-25.10397 3.7191,1.472487 z m -187.33932,394.134584 -3.50522,-1.927 13.00733,-23.6603 3.5052,1.927 z m 210.52635,-382.946016 -3.50521,-1.927012 13.00733,-23.660288 3.50522,1.927003 z M 104.042,426.48981 l -2.91587,-2.73817 18.48277,-19.68218 2.91585,2.73817 z m 299.14708,-318.55929 -2.91585,-2.73818 18.48276,-19.682164 2.91587,2.738175 z m -319.274312,297.49287 -2.549698,-3.08204 20.80386,-17.21047 2.54968,3.08203 z M 420.62905,126.8691 l -2.54967,-3.08204 20.80384,-17.21046 2.5497,3.08204 z m -354.042483,255.13137 -2.143311,-3.3773 22.79686,-14.46734 2.14329,3.37728 z m 368.971303,-234.15632 -2.14329,-3.37729 22.79684,-14.46734 2.14331,3.3773 z m -383.227196,208.7463 -1.703122,-3.6193 24.430339,-11.49606 1.703103,3.61928 z M 447.7401,170.52489 l -1.70311,-3.61929 24.43032,-11.49606 1.70312,3.6193 z m -413.856989,130.91215 -0.749533,-3.92914 26.521769,-5.05931 0.749518,3.92912 z m 429.259539,-81.88564 -0.74953,-3.92914 26.52175,-5.05931 0.74953,3.92914 z m -433.16028,53.01205 -0.251172,-3.99209 26.946737,-1.69536 0.251159,3.99208 z m 436.13769,-27.43946 -0.25117,-3.9921 26.94672,-1.69535 0.25117,3.99209 z m -436.388852,-1.69534 0.25115,-3.99209 26.946739,1.69533 -0.251162,3.99208 z m 436.137692,27.43945 0.25115,-3.9921 26.94672,1.69534 -0.25115,3.99209 z m -432.735315,-56.37599 0.749512,-3.92914 26.521773,5.05929 -0.749521,3.92912 z m 429.259545,81.88563 0.74951,-3.92915 26.52175,5.05929 -0.74951,3.92914 z M 50.627553,159.02886 l 1.703104,-3.61931 24.430346,11.49605 -1.703106,3.61928 z m 395.409437,186.06555 1.7031,-3.61931 24.43033,11.49603 -1.7031,3.61931 z M 64.443255,133.37684 l 2.143293,-3.37731 22.796869,14.46733 -2.143293,3.37729 z m 368.971315,234.15631 2.14329,-3.37731 22.79686,14.46731 -2.14329,3.37731 z M 81.365066,109.65866 l 2.549682,-3.08205 20.803872,17.21045 -2.54968,3.08204 z m 336.714294,278.55429 2.54968,-3.08206 20.80387,17.21044 -2.54968,3.08205 z M 101.12612,88.248375 l 2.91586,-2.738186 18.48279,19.682151 -2.91586,2.73818 z m 299.14709,318.559295 2.91586,-2.7382 18.48279,19.68215 -2.91586,2.73819 z M 147.87952,53.660358 l 3.50522,-1.927013 13.00736,23.660278 -3.50522,1.927014 z m 210.52636,382.946022 3.50522,-1.92702 13.00736,23.66028 -3.50522,1.92702 z M 174.13454,41.028105 l 3.7191,-1.472498 9.93937,25.103964 -3.7191,1.472498 z m 160.87043,406.312325 3.7191,-1.4725 9.93937,25.10396 -3.7191,1.47251 z m -133.2392,-415.554343 3.87433,-0.99476 6.71463,26.151745 -3.87433,0.99476 z m 108.67748,423.270843 3.87433,-0.99476 6.71463,26.15174 -3.87433,0.99477 z m -80.1058,-428.976874 3.96846,-0.501333 3.384,26.787097 -3.96846,0.501333 z m 54.77062,433.554124 3.96846,-0.50133 3.384,26.78709 -3.96846,0.50134 z m -163.0472,-14.17889 -4.8541,-3.5267 23.51141,-32.36068 4.8541,3.52671 z m 249.22094,-343.02319 -4.85409,-3.526713 23.51141,-32.36068 4.85409,3.526705 z m -334.99987,228.11301 -1.8541,-5.70633 38.04226,-12.36068 1.8541,5.70633 z M 439.5299,199.5219 l -1.8541,-5.70633 38.04226,-12.36068 1.8541,5.70633 z m -405.10206,-12.36067 1.8541,-5.70634 38.04226,12.36068 -1.8541,5.70633 z m 403.24796,131.0232 1.8541,-5.70633 38.04226,12.36068 -1.8541,5.70633 z M 117.20677,70.071416 l 4.8541,-3.526711 23.51141,32.360681 -4.8541,3.526714 z m 249.22095,343.023204 4.8541,-3.52671 23.51141,32.36068 -4.8541,3.52671 z M 253,24.000003 l 6,0 0,40 -6,0 z M 253,448 l 6,0 0,40 -6,0 z"
       inkscape:connector-curvature="0" />
  </g>
  <g
     inkscape:groupmode="layer"
     id="10000"
     inkscape:label="10000"
     style="display:inline">
    <path
       style="fill:#0c0c0c;fill-opacity:1;stroke:none"
       d="M 245.99999,40.499997 246,141.4375 c -41.13141,3.54581 -76.07324,28.73222 -93.375,64.125 l 67.40625,32.90625 C 217.44576,243.76262 216.00001,249.71176 216,256 c 0,6.28824 1.44577,12.23738 4.03125,17.53125 L 152.625,306.4375 C 171.3144,344.66312 210.58343,371 256,371 l 0,17.5 c 73.17772,-4e-5 132.5,-59.32226 132.5,-132.5 0,-69.81086 -53.99728,-127.00918 -122.5,-132.125 l 10e-6,-83.375002 -20.00002,-10e-7 z"
       id="path3986"
       inkscape:connector-curvature="0" />
    <path
       id="path4209"
       style="fill:#f0f0f0"
       d="m 293.74201,337.00582 0,-14.19527 6.41738,0 c 1.61377,1e-5 2.78462,0.12911 3.51256,0.38731 0.73477,0.25178 1.32192,0.70365 1.76144,1.35563 0.43948,0.652 0.65923,1.39759 0.65924,2.23677 -10e-6,1.06514 -0.33307,1.94629 -0.99917,2.64346 -0.66613,0.69072 -1.66187,1.12646 -2.98723,1.3072 0.65924,0.36151 1.20175,0.75851 1.62752,1.19101 0.43263,0.43251 1.01291,1.2007 1.74083,2.30455 l 1.84385,2.76934 -3.64648,0 -2.20436,-3.08888 c -0.78287,-1.10386 -1.31851,-1.7978 -1.60692,-2.08184 -0.28844,-0.29049 -0.59402,-0.48738 -0.91677,-0.59066 -0.32277,-0.10973 -0.83437,-0.16461 -1.53482,-0.16461 l -0.61805,0 0,5.92599 -3.04902,0 m 3.04902,-8.19182 2.25588,0 c 1.4627,10e-6 2.37603,-0.0581 2.74,-0.17429 0.36395,-0.11619 0.64894,-0.3163 0.85496,-0.60034 0.20601,-0.28403 0.30901,-0.63907 0.30902,-1.06514 -1e-5,-0.47768 -0.13735,-0.86177 -0.41202,-1.15227 -0.26784,-0.29693 -0.64896,-0.48413 -1.14339,-0.56161 -0.24723,-0.0323 -0.98888,-0.0484 -2.22497,-0.0484 l -2.37948,0 0,3.60207 m -17.15077,8.1918 0,-14.19527 11.19694,0 0,2.40138 -8.14792,0 0,3.14697 7.58137,0 0,2.39171 -7.58137,0 0,3.86351 8.43633,0 0,2.3917 -11.48535,0 m -14.20476,0 0,-2.58536 7.93159,-9.20853 -7.03542,0 0,-2.40138 11.05272,0 0,2.22708 -8.27152,9.57649 8.59084,0 0,2.3917 -12.26821,0 m -4.63535,0 0,-14.19527 3.04903,0 0,14.19527 -3.04903,0 m -9.3634,0 0,-11.79389 -4.48083,0 0,-2.40138 12.0004,0 0,2.40138 -4.47054,0 0,11.79389 -3.04903,0 m -9.34279,0 0,-14.19527 3.04903,0 0,14.19527 -3.04903,0 m -9.28099,-5.21913 0,-2.39171 6.57188,0 0,5.65487 c -0.63866,0.58099 -1.56573,1.09419 -2.7812,1.5396 -1.20864,0.43896 -2.43443,0.65844 -3.67737,0.65844 -1.57946,0 -2.95634,-0.30985 -4.13061,-0.92956 -1.17429,-0.62617 -2.05673,-1.517 -2.6473,-2.67251 -0.59058,-1.16196 -0.88587,-2.42397 -0.88587,-3.78605 0,-1.47827 0.32963,-2.79192 0.98887,-3.94098 0.65926,-1.14903 1.62409,-2.03019 2.89452,-2.64346 0.96827,-0.47122 2.17345,-0.70684 3.61558,-0.70686 1.87472,2e-5 3.33743,0.37119 4.38812,1.11355 1.05753,0.73592 1.73738,1.75586 2.03955,3.05982 l -3.02842,0.53256 c -0.2129,-0.69716 -0.61463,-1.24586 -1.20519,-1.6461 -0.58373,-0.40668 -1.31508,-0.61002 -2.19406,-0.61003 -1.33225,1e-5 -2.39323,0.39701 -3.18294,1.19101 -0.78287,0.79402 -1.17429,1.97211 -1.17429,3.5343 0,1.68484 0.39829,2.95008 1.19488,3.79572 0.79659,0.8392 1.8404,1.2588 3.13144,1.2588 0.63864,0 1.27729,-0.1162 1.91595,-0.34859 0.64549,-0.23885 1.19831,-0.52611 1.65842,-0.86179 l 0,-1.80103 -3.49196,0 m -12.96867,5.21913 0,-14.19527 3.04903,0 0,14.19527 -3.04903,0 m -15.16273,-14.19527 5.57272,0 c 1.25668,1e-5 2.21465,0.0904 2.87391,0.27112 0.88585,0.24532 1.64468,0.68105 2.27647,1.30721 0.63177,0.62617 1.11247,1.39436 1.44211,2.30455 0.32961,0.90376 0.49442,2.02052 0.49444,3.35032 -2e-5,1.16841 -0.15453,2.17544 -0.46354,3.02109 -0.37771,1.03286 -0.91678,1.86882 -1.61722,2.5079 -0.52878,0.48415 -1.24297,0.86179 -2.14256,1.13291 -0.673,0.20012 -1.57259,0.30017 -2.6988,0.30017 l -5.73753,0 0,-14.19527 m 3.04903,2.40138 0,9.40219 2.27647,0 c 0.85152,0 1.46613,-0.0452 1.84384,-0.13556 0.49442,-0.11619 0.90302,-0.31308 1.22578,-0.59066 0.32962,-0.27759 0.59744,-0.73268 0.80347,-1.3653 0.206,-0.63908 0.30901,-1.50732 0.30902,-2.60474 -1e-5,-1.09739 -0.10304,-1.93981 -0.30902,-2.52726 -0.20603,-0.58742 -0.49445,-1.04575 -0.86527,-1.37498 -0.37083,-0.32921 -0.84124,-0.55192 -1.4112,-0.66813 -0.42578,-0.0904 -1.26013,-0.13555 -2.50309,-0.13556 l -1.37,0 m 108.69371,-16.12028 2.95632,0.88116 c -0.45325,1.54928 -1.20864,2.70155 -2.26617,3.45682 -1.05069,0.74882 -2.38636,1.12323 -4.007,1.12323 -2.00523,0 -3.65334,-0.6423 -4.94436,-1.92692 -1.29104,-1.29106 -1.93655,-3.05336 -1.93655,-5.28691 0,-2.36264 0.64895,-4.19595 1.94684,-5.49994 1.29789,-1.31042 3.00438,-1.96564 5.11949,-1.96565 1.84726,10e-6 3.34773,0.51322 4.50143,1.53959 0.6867,0.60682 1.20174,1.47828 1.54512,2.61441 l -3.01813,0.67781 c -0.17856,-0.73589 -0.55282,-1.31687 -1.12278,-1.74294 -0.56312,-0.42604 -1.24984,-0.63906 -2.06016,-0.63907 -1.11935,10e-6 -2.02926,0.37764 -2.7297,1.1329 -0.69359,0.75529 -1.04039,1.97857 -1.04038,3.66987 -1e-5,1.79458 0.34336,3.07273 1.03008,3.83446 0.68671,0.76174 1.57945,1.14259 2.6782,1.14259 0.81032,0 1.50733,-0.24206 2.09106,-0.72622 0.58369,-0.48414 1.0026,-1.24588 1.25669,-2.28519 m -15.60566,5.21914 0,-14.19528 3.04902,0 0,14.19528 -3.04902,0 m -15.12153,0 0,-14.19528 2.96663,0 6.18045,9.47966 0,-9.47966 2.83272,0 0,14.19528 -3.05934,0 -6.08775,-9.25694 0,9.25694 -2.83271,0 m -17.04777,-7.01049 c 0,-1.44598 0.23005,-2.65959 0.69015,-3.64081 0.34336,-0.72299 0.81032,-1.37174 1.40091,-1.94629 0.59744,-0.5745 1.24982,-1.00055 1.95714,-1.27814 0.9408,-0.3744 2.02581,-0.56161 3.25505,-0.56162 2.22495,10e-6 4.00355,0.64877 5.33579,1.94628 1.33909,1.29754 2.00864,3.1018 2.00865,5.4128 -10e-6,2.29165 -0.6627,4.08623 -1.98805,5.38375 -1.32538,1.29106 -3.09711,1.93659 -5.3152,1.93659 -2.24557,0 -4.03103,-0.6423 -5.35639,-1.92692 -1.32537,-1.29106 -1.98805,-3.06627 -1.98805,-5.32564 m 3.14174,-0.0969 c -10e-6,1.60739 0.39485,2.82744 1.18458,3.66018 0.78972,0.82629 1.79233,1.23942 3.00783,1.23942 1.21548,0 2.21122,-0.4099 2.98722,-1.22973 0.78285,-0.82628 1.17428,-2.06248 1.17429,-3.70859 -1e-5,-1.62674 -0.38115,-2.84034 -1.14339,-3.64081 -0.7554,-0.80045 -1.76143,-1.20068 -3.01812,-1.20069 -1.25671,1e-5 -2.26961,0.40669 -3.03873,1.22006 -0.76913,0.80693 -1.15369,2.02698 -1.15368,3.66016 m -17.3877,2.4886 2.96662,-0.27113 c 0.17854,0.93604 0.53907,1.62352 1.08158,2.06249 0.54937,0.43896 1.2876,0.65844 2.21467,0.65844 0.982,0 1.72022,-0.19366 2.21466,-0.58099 0.5013,-0.39377 0.75195,-0.85209 0.75196,-1.37498 -10e-6,-0.33567 -0.10645,-0.61971 -0.31932,-0.8521 -0.20603,-0.23885 -0.56999,-0.44541 -1.09189,-0.61972 -0.3571,-0.11619 -1.17085,-0.32275 -2.44128,-0.6197 -1.6344,-0.38086 -2.78121,-0.84887 -3.44045,-1.40404 -0.92708,-0.78109 -1.39061,-1.73324 -1.39061,-2.85649 0,-0.72298 0.21631,-1.39756 0.64894,-2.02374 0.43951,-0.63261 1.06785,-1.11353 1.88504,-1.44276 0.82407,-0.32922 1.81637,-0.49383 2.97693,-0.49384 1.89534,10e-6 3.32028,0.39056 4.27482,1.17164 0.9614,0.78111 1.46613,1.82364 1.51421,3.12761 l -3.04902,0.12588 c -0.13049,-0.72944 -0.41204,-1.25232 -0.84466,-1.56865 -0.42578,-0.32275 -1.06786,-0.48413 -1.92625,-0.48414 -0.88587,10e-6 -1.57945,0.17108 -2.08076,0.51319 -0.32276,0.2195 -0.48414,0.51321 -0.48413,0.88116 -10e-6,0.33568 0.15107,0.62294 0.45323,0.86178 0.38456,0.30341 1.31849,0.61973 2.80181,0.94894 1.4833,0.32923 2.57862,0.67136 3.28594,1.02639 0.71418,0.34859 1.27042,0.82952 1.66873,1.44277 0.40515,0.6068 0.60773,1.35885 0.60774,2.25614 -10e-6,0.81338 -0.24036,1.5751 -0.72105,2.28518 -0.48071,0.71009 -1.16056,1.23943 -2.03955,1.58802 -0.87901,0.34213 -1.97433,0.51319 -3.28595,0.5132 -1.90908,-10e-6 -3.37522,-0.41314 -4.39843,-1.23942 -1.02321,-0.83274 -1.63439,-2.04312 -1.83353,-3.63113 m -16.24431,-2.3917 c 0,-1.44598 0.23005,-2.65959 0.69015,-3.64081 0.34336,-0.72299 0.81033,-1.37174 1.4009,-1.94629 0.59744,-0.5745 1.24983,-1.00055 1.95714,-1.27814 0.9408,-0.3744 2.02582,-0.56161 3.25505,-0.56162 2.22495,10e-6 4.00355,0.64877 5.3358,1.94628 1.33908,1.29754 2.00863,3.1018 2.00865,5.4128 -2e-5,2.29165 -0.6627,4.08623 -1.98804,5.38375 -1.32538,1.29106 -3.09711,1.93659 -5.3152,1.93659 -2.24558,0 -4.03104,-0.6423 -5.35641,-1.92692 -1.32537,-1.29106 -1.98804,-3.06627 -1.98804,-5.32564 m 3.14173,-0.0969 c 0,1.60739 0.39486,2.82744 1.18459,3.66018 0.78972,0.82629 1.79233,1.23942 3.00782,1.23942 1.21548,0 2.21122,-0.4099 2.98722,-1.22973 0.78285,-0.82628 1.17428,-2.06248 1.17429,-3.70859 -1e-5,-1.62674 -0.38113,-2.84034 -1.14338,-3.64081 -0.7554,-0.80045 -1.76144,-1.20068 -3.01813,-1.20069 -1.25669,1e-5 -2.26961,0.40669 -3.03873,1.22006 -0.76912,0.80693 -1.15368,2.02698 -1.15368,3.66016 m -17.75852,7.10739 0,-14.19528 6.41738,0 c 1.61377,2e-5 2.78462,0.12913 3.51256,0.38733 0.73477,0.25177 1.32192,0.70364 1.76143,1.35561 0.43949,0.65201 0.65924,1.3976 0.65925,2.23677 -1e-5,1.06514 -0.33307,1.9463 -0.99917,2.64346 -0.66613,0.69073 -1.66187,1.12646 -2.98723,1.30721 0.65924,0.3615 1.20175,0.7585 1.62752,1.19101 0.43263,0.43251 1.01291,1.20069 1.74083,2.30455 l 1.84385,2.76934 -3.64648,0 -2.20436,-3.08888 c -0.78287,-1.10385 -1.31851,-1.7978 -1.60692,-2.08184 -0.28844,-0.29049 -0.59402,-0.48737 -0.91677,-0.59067 -0.32277,-0.10973 -0.83437,-0.1646 -1.53482,-0.16461 l -0.61805,0 0,5.926 -3.04902,0 m 3.04902,-8.19182 2.25588,0 c 1.4627,1e-5 2.37603,-0.0581 2.74,-0.17429 0.36395,-0.11619 0.64894,-0.31631 0.85496,-0.60035 0.20601,-0.28403 0.30901,-0.63907 0.30902,-1.06513 -1e-5,-0.47768 -0.13735,-0.86177 -0.41202,-1.15228 -0.26784,-0.29693 -0.64896,-0.48413 -1.14339,-0.56161 -0.24723,-0.0323 -0.98888,-0.0484 -2.22497,-0.0484 l -2.37948,0 0,3.60208 m -17.15077,8.1918 0,-14.19528 11.19693,0 0,2.40138 -8.14791,0 0,3.14698 7.58137,0 0,2.3917 -7.58137,0 0,3.86352 8.43633,0 0,2.3917 -11.48535,0 m -1.66872,0 -3.31685,0 -1.3185,-3.22444 -6.03625,0 -1.24639,3.22444 -3.23445,0 5.88174,-14.19528 3.22415,0 6.04655,14.19528 m -5.61393,-5.61614 -2.08075,-5.26755 -2.03955,5.26755 4.1203,0 m 133.88812,-91.86272 0,-30.3165 -12.04723,0 0,-4.05626 28.98319,0 0,4.05626 -12.09712,0 0,30.3165 -4.83884,0 m -28.57444,0 0,-34.37276 4.83884,0 0,30.31649 18.0085,0 0,4.05627 -22.84734,0 m -37.93757,0 14.04263,-34.37276 5.21299,0 14.96551,34.37276 -5.5123,0 -4.26516,-10.41031 -15.28976,0 -4.01575,10.41031 -5.13816,0 m 10.55068,-14.11488 12.39644,0 -3.81621,-9.51933 c -1.164,-2.89172 -2.02867,-5.26764 -2.59402,-7.12777 -0.46561,2.20401 -1.12242,4.39236 -1.97046,6.56505 l -4.01575,10.08205 M 239,23.1875 l 14.5,29 0,110.09375 -4.5,5.25 0,66.6875 14,0 0,-66.6875 -4.5,-5.25 0,-110.09375 14.5,-29 -34,0 z"
       inkscape:connector-curvature="0" />
  </g>
  <g
     inkscape:groupmode="layer"
     id="1000"
     inkscape:label="1000"
     style="display:inline">
    <path
       sodipodi:nodetypes="cccccc"
       inkscape:connector-curvature="0"
       id="path3980"
       d="m 256,131.62411 18.5,30.38289 -10,64.993 -17,0 -10,-64.993 z"
       style="fill:#f0f0f0;fill-opacity:1;stroke:none" />
    <path
       id="path3982"
       d="m 247.5,227 0,10.90625 C 240.71164,241.10418 236,247.99884 236,256 c 0,8.00116 4.71164,14.89582 11.5,18.09375 l -10,28.92025 c 14.79804,11.23742 22.87685,10.98033 37,0 l -10,-28.92025 C 271.28836,270.89582 276,264.00116 276,256 c 0,-8.00116 -4.71164,-14.89582 -11.5,-18.09375 L 264.5,227 z"
       style="fill:#0a0a0a;fill-opacity:1;stroke:none"
       inkscape:connector-curvature="0"
       sodipodi:nodetypes="ccsccccsccc" />
  </g>
  <g
     inkscape:groupmode="layer"
     id="100"
     inkscape:label="100"
     style="display:inline">
    <path
       style="fill:#f0f0f0;fill-opacity:1;stroke:none"
       d="m 256,59 8.5,30.382979 0,137.617021 -17,0 0,-137.617021 z"
       id="rect3957"
       inkscape:connector-curvature="0"
       sodipodi:nodetypes="cccccc" />
    <path
       style="fill:#0a0a0a;fill-opacity:1;stroke:none"
       d="m 247.5,227 0,10.90625 C 240.71164,241.10418 236,247.99884 236,256 c 0,8.00116 4.71164,14.89582 11.5,18.09375 l 0,18.25 c -3.91775,2.70627 -6.5,7.22187 -6.5,12.34375 0,8.28427 6.71573,15 15,15 8.28427,0 15,-6.71573 15,-15 0,-5.12188 -2.58225,-9.63748 -6.5,-12.34375 l 0,-18.25 C 271.28836,270.89582 276,264.00116 276,256 c 0,-8.00116 -4.71164,-14.89582 -11.5,-18.09375 l 0,-10.90625 -17,0 z"
       id="path3964"
       inkscape:connector-curvature="0" />
  </g>
</svg>
